<svg xmlns="http://www.w3.org/2000/svg" width="2048" height="2046" viewBox="0 0 2048 2046">
<g stroke="#e8e8e8" stroke-width="70" stroke-linecap="round" fill="none">
  <line x1="624" y1="30" x2="624" y2="430"/>
  <line x1="398" y1="80" x2="500" y2="300"/>
  <line x1="850" y1="80" x2="748" y2="300"/>
  <line x1="210" y1="210" x2="485" y2="485"/>
  <line x1="1038" y1="210" x2="763" y2="485"/>
  <line x1="80" y1="395" x2="260" y2="470"/>
  <line x1="1168" y1="395" x2="988" y2="470"/>
  <line x1="30" y1="624" x2="430" y2="624"/>
  <line x1="1218" y1="624" x2="818" y2="624"/>
  <line x1="80" y1="853" x2="260" y2="778"/>
  <line x1="1168" y1="853" x2="988" y2="778"/>
  <line x1="210" y1="1038" x2="485" y2="763"/>
  <line x1="1038" y1="1038" x2="763" y2="763"/>
  <line x1="398" y1="1168" x2="500" y2="948"/>
  <line x1="850" y1="1168" x2="748" y2="948"/>
  <line x1="624" y1="1218" x2="624" y2="818"/>
</g>
</svg>